<?xml version="1.0" encoding="UTF-8"?>
<svg version="1.1" xmlns="http://www.w3.org/2000/svg" width="1080" height="1080">
<path d="M0 0 C1.08755585 0.15272369 1.08755585 0.15272369 2.19708252 0.30853271 C34.09145241 4.81899277 65.2250133 11.47440888 96 21 C97.61648438 21.49886719 97.61648438 21.49886719 99.265625 22.0078125 C123.95284812 29.71473749 147.65984884 39.91446462 171 51 C171.84014648 51.39477539 172.68029297 51.78955078 173.54589844 52.19628906 C211.18746133 69.97272375 246.24425205 94.10832269 278.26220703 120.57958984 C279.89668543 121.91555435 281.54846092 123.22368766 283.21484375 124.51953125 C284.13394531 125.23496094 285.05304687 125.95039063 286 126.6875 C286.78375 127.28949219 287.5675 127.89148438 288.375 128.51171875 C288.91125 129.00285156 289.4475 129.49398437 290 130 C290 130.66 290 131.32 290 132 C290.5882959 132.26683594 291.1765918 132.53367188 291.78271484 132.80859375 C294.04303913 134.02312607 295.61687806 135.30413952 297.4765625 137.0625 C298.46970459 137.99739258 298.46970459 137.99739258 299.48291016 138.95117188 C300.54324463 139.9653418 300.54324463 139.9653418 301.625 141 C302.73367432 142.0528418 302.73367432 142.0528418 303.86474609 143.12695312 C309.51541859 148.51985898 315.08968692 153.98891906 320.625 159.5 C321.35799316 160.22832031 322.09098633 160.95664063 322.84619141 161.70703125 C326.87192751 165.74476244 330.71876935 169.88118835 334.44091797 174.20019531 C336.48702238 176.56221876 338.6189477 178.83963012 340.75 181.125 C345.98679192 186.87520289 350.7835558 192.90628126 355.51855469 199.07275391 C357.06035098 201.07851197 358.61182754 203.0765311 360.1640625 205.07421875 C396.16212822 251.56497 424.72921648 303.41238163 444 359 C444.42023438 360.21139648 444.84046875 361.42279297 445.2734375 362.67089844 C462.34567925 412.45200337 473.02011706 465.90889557 473.203125 518.64453125 C473.21014564 520.01462842 473.21723247 521.38472526 473.22438049 522.75482178 C473.24377806 527.10738598 473.24881419 531.45989693 473.25 535.8125 C473.25044186 536.55355358 473.25088371 537.29460716 473.25133896 538.05811691 C473.25815731 559.85284774 473.02087432 581.36890382 470 603 C469.82039324 604.35339704 469.6417157 605.70691766 469.46386719 607.06054688 C455.63836481 711.32831809 411.96123233 811.32478539 332 902 C331.25363281 902.83917969 330.50726562 903.67835938 329.73828125 904.54296875 C323.47627982 911.51276312 316.92809051 918.17796516 310.3125 924.8125 C309.42143555 925.70815674 308.53037109 926.60381348 307.61230469 927.52661133 C302.56851072 932.55867336 297.42515545 937.38313975 292 942 C290.89383795 942.96144251 289.78834182 943.92365184 288.68359375 944.88671875 C235.57956081 990.82219325 174.37310371 1026.14315891 108 1049 C106.92830566 1049.36963867 105.85661133 1049.73927734 104.75244141 1050.12011719 C72.10404525 1061.25083512 38.64054156 1068.59477389 4.5 1073.25 C3.39390381 1073.40114258 2.28780762 1073.55228516 1.14819336 1073.70800781 C-2.5634978 1074.18492151 -6.27869242 1074.60709489 -10 1075 C-11.21346603 1075.1308046 -11.21346603 1075.1308046 -12.45144653 1075.26425171 C-30.43566407 1077.1444528 -48.37752518 1077.36053041 -66.4375 1077.3125 C-67.91476434 1077.31027773 -69.39202874 1077.30810121 -70.86929321 1077.30596924 C-91.72412847 1077.26426294 -112.31108594 1076.91327329 -133 1074 C-134.53895988 1073.79318028 -136.07802842 1073.58716793 -137.6171875 1073.38183594 C-216.91800132 1062.69676667 -294.91116585 1035.47016482 -361.50244141 990.67480469 C-363.69282813 989.20598231 -365.89399185 987.75708226 -368.10546875 986.3203125 C-384.54958547 975.60452857 -400.01488862 963.65874099 -415 951 C-415.91773193 950.23091309 -415.91773193 950.23091309 -416.85400391 949.44628906 C-429.98571155 938.43814363 -442.36223277 926.71605784 -454.5 914.625 C-455.3367627 913.79291016 -456.17352539 912.96082031 -457.03564453 912.10351562 C-461.89733385 907.22914279 -466.52491658 902.2295088 -471 897 C-472.0453195 895.80852934 -473.09216821 894.61839838 -474.140625 893.4296875 C-480.89145381 885.7290041 -487.41461405 877.90286937 -493.640625 869.77148438 C-494.99070178 868.01211707 -496.35440336 866.26393777 -497.71875 864.515625 C-510.99717597 847.32336335 -523.28420107 828.89839744 -534 810 C-534.37463379 809.34402832 -534.74926758 808.68805664 -535.13525391 808.01220703 C-538.15441914 802.70926688 -541.08804717 797.3623966 -544 792 C-544.68618408 790.74848145 -544.68618408 790.74848145 -545.38623047 789.47167969 C-583.84206198 719.05513135 -606.92402281 635.78165883 -607.203125 555.35546875 C-607.21014564 553.98537158 -607.21723247 552.61527474 -607.22438049 551.24517822 C-607.24377806 546.89261402 -607.24881419 542.54010307 -607.25 538.1875 C-607.25044186 537.44644642 -607.25088371 536.70539284 -607.25133896 535.94188309 C-607.25815731 514.14715226 -607.02087432 492.63109618 -604 471 C-603.82039324 469.64660296 -603.6417157 468.29308234 -603.46386719 466.93945312 C-600.92175644 447.7676202 -597.50077703 428.81589551 -593 410 C-592.58524414 408.26097412 -592.58524414 408.26097412 -592.16210938 406.48681641 C-584.44232241 374.71457808 -573.70727809 343.68275895 -560 314 C-559.17846436 312.21674316 -559.17846436 312.21674316 -558.34033203 310.39746094 C-535.00171378 259.99435128 -504.17749638 213.09241363 -466.21484375 172.4609375 C-463.90409068 170.01246848 -463.90409068 170.01246848 -462 167 C-461.34 167 -460.68 167 -460 167 C-459.75378906 166.42926758 -459.50757813 165.85853516 -459.25390625 165.27050781 C-457.79101003 162.6215719 -456.07354681 160.81451454 -453.9375 158.671875 C-453.14085937 157.87265625 -452.34421875 157.0734375 -451.5234375 156.25 C-450.69070313 155.425 -449.85796875 154.6 -449 153.75 C-448.16726563 152.90953125 -447.33453125 152.0690625 -446.4765625 151.203125 C-445.67992187 150.4090625 -444.88328125 149.615 -444.0625 148.796875 C-443.33160156 148.06823242 -442.60070312 147.33958984 -441.84765625 146.58886719 C-440 145 -440 145 -438 145 C-438 144.34 -438 143.68 -438 143 C-436.63671875 141.625 -436.63671875 141.625 -434.6875 140 C-431.28352552 137.11141603 -427.96917602 134.15206322 -424.6875 131.125 C-419.28506684 126.20492695 -413.71085243 121.55644987 -408 117 C-407.49162598 116.59201172 -406.98325195 116.18402344 -406.45947266 115.76367188 C-391.57883174 103.83730931 -376.30679611 92.51691101 -360.15673828 82.36523438 C-357.94487808 80.96510734 -355.75083788 79.53999217 -353.55859375 78.109375 C-341.08323514 70.0182937 -328.17053281 62.89120464 -315 56 C-313.64116699 55.28263672 -313.64116699 55.28263672 -312.25488281 54.55078125 C-296.60787088 46.32702967 -280.44048953 39.4558917 -264 33 C-262.79311523 32.52530273 -261.58623047 32.05060547 -260.34277344 31.56152344 C-220.14204618 15.92010038 -177.82976973 5.2549149 -135 0 C-133.8661084 -0.14808105 -132.7322168 -0.29616211 -131.56396484 -0.44873047 C-89.07992998 -5.78003783 -42.39722773 -5.99915733 0 0 Z " fill="#E0D6B7" transform="translate(607,3)"/>
<path d="M0 0 C1.0880364 2.69036323 2.0146435 5.29994008 2.875 8.0625 C3.1318457 8.85946289 3.38869141 9.65642578 3.65332031 10.47753906 C5.86190179 17.39195136 7.91883475 24.35175342 9.921875 31.328125 C10.92914369 34.92293778 10.92914369 34.92293778 12.140625 38.046875 C13.91066464 44.12937484 12.86016166 49.36785844 11.25 55.375 C10.88459963 56.77973564 10.5200455 58.18469163 10.15625 59.58984375 C9.96675781 60.31155762 9.77726562 61.03327148 9.58203125 61.77685547 C5.45875632 75.71212169 5.45875632 75.71212169 5 90 C7.03805615 93.01934244 8.25219683 93.79605368 11.75 94.75 C12.4925 94.8325 13.235 94.915 14 95 C14.0402832 94.40356689 14.08056641 93.80713379 14.12207031 93.19262695 C14.66054152 86.61549458 15.98982545 80.53576047 17.75 74.1875 C18.29870332 72.14762634 18.84554092 70.10725001 19.390625 68.06640625 C19.79958008 66.53910889 19.79958008 66.53910889 20.21679688 64.98095703 C21.3821782 60.54538783 22.45053353 56.08920611 23.5 51.625 C23.69875732 50.78130859 23.89751465 49.93761719 24.10229492 49.06835938 C24.51511536 47.31374911 24.92745893 45.5590266 25.33935547 43.80419922 C26.05530418 40.76525359 26.77847102 37.72810116 27.50390625 34.69140625 C27.75962402 33.61858398 28.0153418 32.54576172 28.27880859 31.44042969 C28.79770522 29.28660456 29.32526223 27.13484592 29.86181641 24.98535156 C31.00798587 20.36745142 32.08303522 15.82523717 32.70703125 11.10546875 C33.2952472 7.07037939 34.05243239 3.64090728 36 0 C40.95579465 -3.68213732 46.08608376 -5.40292294 52 -7 C52.73105957 -7.20512207 53.46211914 -7.41024414 54.21533203 -7.62158203 C59.10626307 -8.96101164 64.01658764 -10.06687874 69 -11 C70.3614917 -11.26816528 70.3614917 -11.26816528 71.75048828 -11.54174805 C79.01837554 -12.8827545 85.99411223 -13.28155327 93.375 -13.1875 C94.46989746 -13.1781543 95.56479492 -13.16880859 96.69287109 -13.15917969 C99.7958504 -13.12327517 102.89756038 -13.06732909 106 -13 C106.74701172 -12.98598145 107.49402344 -12.97196289 108.26367188 -12.95751953 C125.51977424 -12.53610918 143.75905591 -7.71487108 155.94140625 5.03125 C163.57811336 14.13592025 167.57026783 25.86534555 168.89453125 37.57421875 C169.04277344 38.8588501 169.19101562 40.14348145 169.34375 41.46704102 C169.50007843 42.87385196 169.65632578 44.28067192 169.8125 45.6875 C169.98253791 47.17836515 170.15312571 48.66916768 170.32421875 50.15991211 C170.79060459 54.23690568 171.24966288 58.31469318 171.70709229 62.3927002 C172.52522471 69.67525507 173.35392882 76.95662265 174.17999268 84.23828125 C174.50279303 87.08714979 174.82443766 89.93614729 175.14599609 92.78515625 C176.20766677 102.17216686 177.30073884 111.55310094 178.46899414 120.92749023 C182.93148223 156.74134074 186.64458491 192.67908598 189.70751953 228.63964844 C189.99488961 231.94128592 190.30497736 235.24006588 190.62109375 238.5390625 C191.54976902 248.43694841 192.22173096 258.30718322 192.375 268.25 C192.40102295 269.17385498 192.4270459 270.09770996 192.45385742 271.04956055 C192.47118912 277.39236615 192.47118912 277.39236615 189.9765625 280.609375 C189.32429687 281.06828125 188.67203125 281.5271875 188 282 C194.2356203 283.46391312 200.40731383 284.54814143 206.75390625 285.38671875 C217.54666391 286.87516631 228.23921824 288.75961568 238.9375 290.8125 C239.84933044 290.98641266 240.76116089 291.16032532 241.70062256 291.33950806 C255.32751028 293.95036718 268.73307936 296.9030836 282 301 C283.39675225 301.41275717 284.79387912 301.82424909 286.19140625 302.234375 C290.15369521 303.41429493 294.08140179 304.68272038 298 306 C298.71124023 306.2376709 299.42248047 306.4753418 300.15527344 306.72021484 C326.77034083 315.74060229 350.92268052 328.15613772 371 348 C371.66 348.5878125 372.32 349.175625 373 349.78125 C391.28943334 366.37721729 398.78110494 391.40136934 400.12548828 415.22363281 C401.51468508 446.53989836 393.33852444 481.23926467 372 505 C371.34 505.33 370.68 505.66 370 506 C370.57156516 510.94594385 372.20676069 514.98444203 374.3125 519.4375 C377.7893265 527.11504883 380.17207304 534.75740342 382 543 C382.2990625 544.25554688 382.598125 545.51109375 382.90625 546.8046875 C391.23973424 584.65903608 381.006863 625.32269692 360.75 657.640625 C355.55243613 665.47409626 349.50323745 672.25774616 343 679 C342.39542969 679.65613281 341.79085937 680.31226563 341.16796875 680.98828125 C324.71721485 698.39966312 300.41964623 710.34273299 277.5 716.4375 C276.25984131 716.77128662 276.25984131 716.77128662 274.99462891 717.11181641 C257.23951192 721.46267416 239.14798496 722.58087873 220.9375 722.5 C219.90695496 722.49890228 218.87640991 722.49780457 217.81463623 722.49667358 C198.56532798 722.43841856 179.900746 720.68264755 160.95788574 717.3449707 C159.07620733 717.01342739 157.19291423 716.69108828 155.30957031 716.36914062 C147.83578647 715.07644586 140.41065539 713.61465216 133 712 C131.46375977 711.66597168 131.46375977 711.66597168 129.89648438 711.32519531 C100.76383949 704.8825736 72.37516317 696.10102218 46 682 C45.09193604 681.52095215 45.09193604 681.52095215 44.16552734 681.03222656 C35.05288897 676.18952421 27.00139381 670.4861797 19 664 C15.64715859 665.49270337 13.15760006 667.43183106 10.375 669.8125 C-1.88812204 679.95001422 -14.57937168 689.19458469 -29 696 C-30.72863281 696.82951172 -30.72863281 696.82951172 -32.4921875 697.67578125 C-56.47584831 708.25063388 -84.49034908 709.27688915 -109 700 C-120.95573114 694.84215374 -131.89708673 688.22795819 -142 680 C-142.54398438 680.69480469 -143.08796875 681.38960937 -143.6484375 682.10546875 C-164.8278193 708.17510649 -191.95628152 721.7050427 -225 727 C-226.26585937 727.20753906 -227.53171875 727.41507813 -228.8359375 727.62890625 C-260.1051856 732.16389862 -291.49883063 727.75783536 -318.046875 709.95703125 C-320.48782768 708.0719006 -322.75060044 706.10954052 -325 704 C-325.92167969 703.14535156 -326.84335937 702.29070313 -327.79296875 701.41015625 C-358.33867499 672.38375254 -361.73060274 629.65311114 -366.50465393 590.16209412 C-367.57949651 581.27656893 -368.75566094 572.41738334 -370.0625 563.5625 C-371.63657072 552.86338166 -372.97839602 542.14593208 -374.24725342 531.4074707 C-375.56258602 520.29703182 -377.04971943 509.2238487 -378.69335938 498.15625 C-378.84998047 497.09535156 -379.00660156 496.03445313 -379.16796875 494.94140625 C-379.30485107 494.03076416 -379.4417334 493.12012207 -379.58276367 492.18188477 C-380.61898515 484.27955914 -381.16567196 476.49356866 -381.203125 468.5234375 C-381.20882507 467.55451569 -381.21452515 466.58559387 -381.22039795 465.58731079 C-381.229782 463.5486152 -381.23635542 461.5099049 -381.24023438 459.47119141 C-381.2499095 456.40369224 -381.28098453 453.33687301 -381.3125 450.26953125 C-381.37473301 438.77864131 -380.69306667 428.19122438 -378 417 C-377.79052734 416.0704248 -377.58105469 415.14084961 -377.36523438 414.18310547 C-376.82529803 411.85909132 -376.24192724 409.55464561 -375.625 407.25 C-375.41149902 406.45053955 -375.19799805 405.6510791 -374.97802734 404.82739258 C-373.17839109 398.29100278 -370.90766195 392.13101291 -368 386 C-367.48695313 384.88367188 -366.97390625 383.76734375 -366.4453125 382.6171875 C-347.5134139 342.92127108 -311.54756873 317.50296991 -271.046875 302.93798828 C-249.84229652 295.56735836 -228.25517203 290.25772787 -206.01074219 287.28369141 C-203.40696614 286.91633009 -200.83096438 286.43914144 -198.25 285.9375 C-180.66324899 282.69853977 -162.81996779 282.00837154 -145 281 C-145.48210937 280.27554687 -145.96421875 279.55109375 -146.4609375 278.8046875 C-147.09257812 277.83789062 -147.72421875 276.87109375 -148.375 275.875 C-149.00148438 274.92367188 -149.62796875 273.97234375 -150.2734375 272.9921875 C-154.47792828 265.70567181 -154.34769836 259.07989587 -154.3125 250.875 C-154.31076279 249.88641998 -154.31076279 249.88641998 -154.30899048 248.87786865 C-154.26624091 236.26469139 -153.55534747 223.70524359 -152.6875 211.125 C-152.62873688 210.26791443 -152.56997375 209.41082886 -152.50942993 208.527771 C-150.24674578 176.1152178 -146.86996646 143.76973868 -143.6875 111.4375 C-143.58961559 110.44229591 -143.49173119 109.44709183 -143.39088058 108.42173004 C-141.00742023 84.21275682 -138.61078088 60.01105398 -135.5625 35.875 C-135.44321136 34.9236618 -135.32392273 33.97232361 -135.20101929 32.99215698 C-134.8713956 30.38704239 -134.53400788 27.78312422 -134.19140625 25.1796875 C-134.09906708 24.46525986 -134.00672791 23.75083221 -133.91159058 23.01475525 C-133.41646815 19.37918648 -132.81402227 15.76828543 -132.10986328 12.16723633 C-131.96920441 11.43886063 -131.82854553 10.71048492 -131.68362427 9.96003723 C-130.41018487 6.30892544 -127.52263161 4.7035872 -124.3125 2.8125 C-123.63678955 2.39524658 -122.9610791 1.97799316 -122.26489258 1.5480957 C-89.75209814 -17.9369108 -32.72351477 -21.81567652 0 0 Z " fill="#55679C" transform="translate(534,167)"/>
<path d="M0 0 C1.24265625 -0.00467285 2.4853125 -0.0093457 3.765625 -0.01416016 C15.26520654 0.0056352 26.73855195 0.31416194 38 2.8125 C38.79446533 2.98620117 39.58893066 3.15990234 40.4074707 3.33886719 C71.59608649 10.44973603 99.06073706 25.89558461 116.609375 53.25683594 C137.35495403 87.23482625 144.89137591 132.33476214 135.75 171.125 C133.82505364 177.61857643 131.37868111 183.888184 128.75 190.125 C125.39180241 188.68110571 123.33303171 186.88408265 120.859375 184.2109375 C120.15039062 183.45039062 119.44140625 182.68984375 118.7109375 181.90625 C117.98132813 181.1121875 117.25171875 180.318125 116.5 179.5 C115.75492187 178.69820312 115.00984375 177.89640625 114.2421875 177.0703125 C112.40630598 175.09320933 110.57585299 173.11136057 108.75 171.125 C106.77 172.775 104.79 174.425 102.75 176.125 C104.36726942 180.05131882 107.05943945 182.83891183 109.9375 185.875 C110.46069824 186.43646729 110.98389648 186.99793457 111.52294922 187.57641602 C114.49564244 190.76007737 117.50209859 193.9092641 120.52734375 197.04296875 C138.95131403 216.21626166 154.5057344 237.87284906 154.36157227 265.58081055 C153.70615761 282.40846161 144.56143863 297.52150923 132.75 309.125 C129.19379541 312.27509481 125.50052358 315.21074181 121.75 318.125 C120.85796875 318.85589844 119.9659375 319.58679688 119.046875 320.33984375 C100.96228721 334.71153433 81.95982603 342.22777056 58.75 340.125 C39.75676291 336.59528337 23.97632671 322.06576752 12.75 307.125 C12.00105469 306.155625 11.25210938 305.18625 10.48046875 304.1875 C6.10493281 298.46277836 2.05027767 292.61145087 -1.93237305 286.60668945 C-4.45583304 282.80714419 -7.01152265 279.02971712 -9.5703125 275.25390625 C-10.03688263 274.56519943 -10.50345276 273.87649261 -10.98416138 273.16691589 C-11.9515721 271.73912005 -12.91908263 270.31139182 -13.88668823 268.88372803 C-23.06710454 255.33664197 -32.20843291 241.76531586 -41.25 228.125 C-44.80225704 229.83935014 -47.99021634 231.90242023 -51.25 234.125 C-46.48490049 241.71163729 -41.5626101 249.17149508 -36.5 256.5625 C-35.84128906 257.52865234 -35.18257812 258.49480469 -34.50390625 259.49023438 C-31.13319515 264.4565747 -31.13319515 264.4565747 -27.58764648 269.29736328 C-20.72049858 278.68000048 -23.56805336 298.98363451 -24.8125 309.9375 C-27.1831952 322.61413408 -32.87651184 333.29323708 -42.25 342.125 C-43.15298828 343.07246094 -43.15298828 343.07246094 -44.07421875 344.0390625 C-60.15773597 359.87836145 -88.25593571 363.52317584 -109.58813477 363.42333984 C-127.37900247 363.0892254 -142.90383171 359.22431766 -156.06640625 346.515625 C-159.59097506 342.65688419 -162.52836007 338.58058795 -165.25 334.125 C-165.81460938 333.21041016 -165.81460938 333.21041016 -166.390625 332.27734375 C-178.1272675 311.08618368 -178.51304284 283.62012701 -181.39233398 260.06420898 C-182.59321435 250.25398086 -183.87199914 240.46589995 -185.3125 230.6875 C-186.8862545 219.98833004 -188.22839498 209.27094088 -189.49725342 198.5324707 C-190.81258602 187.42203182 -192.29971943 176.3488487 -193.94335938 165.28125 C-199.213178 129.58527691 -197.98302003 91.31198022 -175.72045898 61.18457031 C-158.42674532 38.47731546 -133.351393 24.27096093 -106.25 16.125 C-104.54070312 15.59712891 -104.54070312 15.59712891 -102.796875 15.05859375 C-99.29512473 14.02028408 -95.78001792 13.06266101 -92.25 12.125 C-91.54101562 11.9305127 -90.83203125 11.73602539 -90.1015625 11.53564453 C-76.85295166 7.91545031 -63.54819866 5.52099717 -49.96533203 3.52734375 C-47.70134074 3.19187732 -45.4422005 2.83826578 -43.18359375 2.46875 C-28.84323044 0.20885497 -14.4880058 0.0374321 0 0 Z " fill="#FEFEFE" transform="translate(390.25,490.875)"/>
<path d="M0 0 C1.26038086 0.19899902 2.52076172 0.39799805 3.81933594 0.60302734 C21.99293924 3.50557463 40.09266499 6.72862267 58 11 C58.78584473 11.18353027 59.57168945 11.36706055 60.38134766 11.55615234 C89.32783912 18.39318843 118.18487974 28.38432899 141 48 C141.69996094 48.59167969 142.39992188 49.18335938 143.12109375 49.79296875 C151.76710731 57.69741389 157.42763896 68.64759675 160 80 C160.16983398 80.61617187 160.33966797 81.23234375 160.51464844 81.8671875 C164.88884121 101.08899234 159.75833527 126.14817936 150 143 C147.29121299 146.71559281 144.39445601 149.90469569 141 153 C140.44828125 153.51949219 139.8965625 154.03898438 139.328125 154.57421875 C133.49691779 159.38063459 125.44969904 161.38397984 118.09375 162.40234375 C113.65166339 161.82464814 110.74658905 159.69671656 107.0625 157.25 C64.08753293 130.02748623 18.19646527 117.89748227 -32 114 C-32 117.3 -32 120.6 -32 124 C-29.99486328 123.93232422 -29.99486328 123.93232422 -27.94921875 123.86328125 C-20.80334991 123.86955726 -13.84850212 125.0411769 -6.8125 126.1875 C-6.10891357 126.30048431 -5.40532715 126.41346863 -4.68041992 126.52987671 C43.00496644 134.2120879 95.80503305 149.38382655 126.94140625 189.08984375 C142.67893352 211.33739179 149.29168152 237.39833394 145.17993164 264.43920898 C140.40373455 292.03959842 128.0295331 316.80203691 104.9375 333.625 C85.07037198 347.08984285 60.5067295 354.27652745 36.5859375 354.3359375 C35.54083008 354.34427109 34.49572266 354.35260468 33.41894531 354.3611908 C30.07081157 354.38046991 26.72317988 354.38066594 23.375 354.375 C22.23105774 354.37478851 21.08711548 354.37457703 19.9085083 354.37435913 C4.25419679 354.34539559 -10.85072093 353.92520951 -26.20458984 350.60302734 C-29.17642839 349.96194077 -32.1564018 349.39204236 -35.14453125 348.83203125 C-41.44748955 347.63578147 -47.72367799 346.32795869 -54 345 C-55.10520996 344.77054688 -56.21041992 344.54109375 -57.34912109 344.3046875 C-91.65216376 337.15842478 -126.17159158 327.67973669 -153 304 C-153.65742187 303.42636719 -154.31484375 302.85273437 -154.9921875 302.26171875 C-160.06282862 297.54038846 -163.70018312 292.06664672 -167 286 C-167.76763672 284.59621094 -167.76763672 284.59621094 -168.55078125 283.1640625 C-176.74372346 264.8395664 -173.23530663 239.48084638 -166.6875 221.0625 C-162.05225618 209.92140952 -155.22557609 200.30983654 -143.75 195.5625 C-138.0231941 193.47577171 -132.11717942 192.12075861 -126 193 C-123.62879142 194.29122274 -121.78789718 195.49487808 -119.6875 197.125 C-79.77243919 225.64618213 -29.43735568 238.89161567 19 241 C19.33 237.04 19.66 233.08 20 229 C18.72769531 229.02320313 17.45539063 229.04640625 16.14453125 229.0703125 C-8.98647085 229.04092524 -34.99766386 221.94865319 -59 215 C-60.2271875 214.64679688 -61.454375 214.29359375 -62.71875 213.9296875 C-94.7971028 203.95750391 -128.92397601 184.95372692 -145.08129883 154.35473633 C-159.06195856 126.99842786 -160.86699134 96.75669764 -151.90234375 67.40625 C-147.40598105 54.84691824 -140.97020551 42.90217492 -132 33 C-131.27425781 32.18144531 -130.54851563 31.36289062 -129.80078125 30.51953125 C-97.63119297 -3.77697196 -43.74744147 -6.94133956 0 0 Z " fill="#FEFEFE" transform="translate(731,493)"/>
<path d="M0 0 C1.18270981 -0.00101212 1.18270981 -0.00101212 2.38931274 -0.00204468 C26.45144622 0.03049514 48.12654261 3.45333912 70.2578125 13.015625 C75.09926835 14.79045104 78.77819187 15.85949251 83.7734375 14.2109375 C85.37058594 13.42589844 85.37058594 13.42589844 87 12.625 C95.00384994 8.92710058 103.0897146 6.41921864 111.625 4.25 C112.35428711 4.05100098 113.08357422 3.85200195 113.83496094 3.64697266 C127.51320276 0.02416718 141.2564744 -0.14702698 155.3125 -0.1875 C156.22239685 -0.1936734 157.1322937 -0.1998468 158.06976318 -0.20620728 C176.67696875 -0.28726845 194.07711375 1.96137982 211.625 8.25 C212.68203125 8.61867188 213.7390625 8.98734375 214.828125 9.3671875 C236.53313289 17.6059994 252.28018727 34.93172282 262.06640625 55.56640625 C266.58396965 66.24325408 268.89166975 76.92358448 270.55078125 88.3671875 C270.80722412 90.12029991 270.80722412 90.12029991 271.06884766 91.90882874 C273.0024218 105.44334488 274.46739403 119.02839492 275.90577698 132.62257385 C276.2804248 136.15149195 276.66141436 139.67972516 277.04199219 143.20800781 C277.49473774 147.40833087 277.94709151 151.60869304 278.39666748 155.80935669 C279.45102727 165.66084247 280.53064401 175.50923729 281.634552 185.35528564 C282.97646946 197.32473297 284.28626942 209.29734205 285.55395508 221.27490234 C286.12344127 226.64081357 286.70685373 232.0040046 287.3359375 237.36328125 C289.0710522 252.24238776 290.45701624 267.13933087 291.75 282.0625 C291.83635712 283.05763611 291.92271423 284.05277222 292.01168823 285.07806396 C292.49518855 290.66986024 292.96882993 296.26236364 293.4281311 301.85620117 C293.55102192 303.35047429 293.67527996 304.84463635 293.80160522 306.33862305 C294.53971082 315.11652101 294.7505457 323.81800098 294.6875 332.625 C294.68298828 333.84960938 294.67847656 335.07421875 294.67382812 336.3359375 C294.66222106 339.30734644 294.64589787 342.27864443 294.625 345.25 C288.17191773 344.73812184 281.8533777 344.04940604 275.5 342.8125 C268.71507794 341.53945755 261.94379499 340.624291 255.06982422 339.98461914 C251.51281998 339.62156353 249.66460661 339.2764044 246.625 337.25 C247.27726562 336.79109375 247.92953125 336.3321875 248.6015625 335.859375 C251.65599315 331.92045672 251.13685268 328.34771049 251 323.5 C250.98420898 322.51539795 250.96841797 321.5307959 250.95214844 320.51635742 C250.72998602 310.63873471 249.92461331 300.83287199 248.97998047 291.00195312 C248.65799826 287.59877387 248.35216868 284.19473972 248.05307007 280.789505 C244.17277597 236.65497887 239.27109209 192.59469642 234.12841797 148.59082031 C233.64568167 144.44493889 233.17503025 140.29772148 232.7052002 136.15036011 C232.26796224 132.29524794 231.82722368 128.4405397 231.38604736 124.58587646 C231.17551037 122.74053022 230.96625461 120.89503719 230.75848389 119.04937744 C229.69862516 109.64567113 228.5474709 100.2649439 227.11328125 90.91015625 C226.99850937 90.1421167 226.88373749 89.37407715 226.76548767 88.58276367 C224.73401113 75.77731842 219.5262512 63.92080797 209.4375 55.4375 C196.68489851 46.26684749 180.97681809 43.74219569 165.625 43.25 C164.30991455 43.19320068 164.30991455 43.19320068 162.96826172 43.13525391 C141.59949546 42.28538017 121.51505639 45.2547023 101.625 53.25 C99.62725547 53.92339531 97.62751063 54.59091303 95.625 55.25 C95.46499512 56.17659424 95.30499023 57.10318848 95.14013672 58.05786133 C93.32682391 68.27452739 90.97856842 78.30231097 88.41021729 88.35321045 C87.50816811 91.88410296 86.61734245 95.41779721 85.7260437 98.95141602 C85.28734495 100.69063471 84.84816453 102.42973199 84.40847778 104.16870117 C80.54257751 119.46855156 76.99434856 134.8338186 73.625 150.25 C66.8671875 149.4375 66.8671875 149.4375 64.6875 147.75 C61.33895656 139.87107425 64.67909231 130.40087218 66.56079102 122.4362793 C67.06664235 120.29496504 67.55889645 118.15086668 68.04882812 116.00585938 C70.44878951 105.60242097 70.44878951 105.60242097 71.625 103.25 C72.05143171 97.50401336 70.8721942 93.2310058 68.9375 87.9375 C66.41754775 80.75083047 64.22895291 73.5367102 62.2746582 66.17651367 C61.74405039 64.19574405 61.18566185 62.22247338 60.625 60.25 C60.27115234 58.8578125 60.27115234 58.8578125 59.91015625 57.4375 C58.00701676 54.19811363 55.18317485 53.32434238 51.8125 52.0625 C49.97751953 51.32966797 49.97751953 51.32966797 48.10546875 50.58203125 C46.95691406 50.14246094 45.80835938 49.70289063 44.625 49.25 C43.80128906 48.89421875 42.97757813 48.5384375 42.12890625 48.171875 C38.92259922 46.99139379 35.72678124 46.34613191 32.375 45.6875 C31.13234375 45.43871094 29.8896875 45.18992188 28.609375 44.93359375 C-1.19721662 39.59135527 -37.36723399 41.43144422 -63.125 58.5625 C-64.06859375 59.23925781 -65.0121875 59.91601562 -65.984375 60.61328125 C-68.375 62.25 -68.375 62.25 -71.375 63.25 C-71.51220459 64.5191626 -71.64940918 65.7883252 -71.79077148 67.09594727 C-72.37049253 72.31102516 -73.04424501 77.51185126 -73.72265625 82.71484375 C-77.53065146 112.34970718 -80.75430633 142.0108039 -83.625 171.75 C-83.70863422 172.61521648 -83.79226845 173.48043297 -83.87843704 174.37186813 C-85.06566687 186.66255529 -86.22904069 198.95539977 -87.375 211.25 C-87.48107763 212.38626957 -87.48107763 212.38626957 -87.58929825 213.54549408 C-91.9501472 258.64992563 -91.9501472 258.64992563 -93.79385376 303.90814209 C-93.81179879 305.80103425 -93.84540084 307.69375821 -93.87963867 309.58642578 C-93.85302644 320.33928805 -90.8458783 327.80190888 -84.375 336.25 C-84.375 336.58 -84.375 336.91 -84.375 337.25 C-85.76452881 337.33302368 -85.76452881 337.33302368 -87.18212891 337.41772461 C-90.68981759 337.62769651 -94.19746097 337.83839839 -97.70507812 338.04956055 C-99.20994397 338.14001259 -100.71482626 338.23019145 -102.21972656 338.32006836 C-111.94325053 338.90101322 -121.66051002 339.53123222 -131.375 340.25 C-142.08571981 316.39430587 -137.49289014 287.64761064 -135.53320312 262.30096436 C-135.37523618 260.25306181 -135.22055885 258.20493114 -135.06640625 256.15673828 C-133.24546505 232.13191931 -130.79204504 208.17475916 -128.2996521 184.21180725 C-127.63969115 177.85257654 -126.99710826 171.4919483 -126.375 165.12890625 C-122.96502472 130.2707203 -119.53226627 95.37144263 -114.625 60.6875 C-114.5242215 59.96380219 -114.42344299 59.24010437 -114.3196106 58.49447632 C-112.70709538 47.01330814 -111.41920254 41.53181262 -102.375 34.25 C-101.32545828 33.37898162 -100.27598339 32.50788271 -99.2265625 31.63671875 C-85.3860308 20.30328579 -69.63981746 11.26041905 -52.375 6.25 C-51.51390625 5.99476562 -50.6528125 5.73953125 -49.765625 5.4765625 C-33.36020709 0.79592067 -16.95809136 0.01314874 0 0 Z " fill="#FEFEFE" transform="translate(474.375,111.75)"/>
<path d="M0 0 C1.73046875 2.203125 1.73046875 2.203125 3.1875 5.25 C10.40938154 18.73722247 21.51144329 28.77905579 36 34 C42.85573486 35.81753938 49.49531166 36.31231173 56.5625 36.25 C57.44357422 36.25773437 58.32464844 36.26546875 59.23242188 36.2734375 C68.64990688 36.24563681 76.62801088 34.27056011 85 30 C86.24136719 29.36771484 86.24136719 29.36771484 87.5078125 28.72265625 C98.76086043 22.51111144 104.7138924 12.81678622 111 2 C113.3431213 2.25561323 115.67843403 2.59270772 118 3 C119.67743706 6.35487413 119.68136118 9.3993586 119 13 C112.02342988 28.60171331 97.49590175 39.31646862 82.03125 45.3359375 C80 46 80 46 78 46 C78.3930552 50.27334322 78.81881197 54.54284947 79.25 58.8125 C79.41435547 60.6059082 79.41435547 60.6059082 79.58203125 62.43554688 C80.91244657 75.28455795 84.15483675 85.71399525 93.80859375 94.6796875 C99.30774724 99.09272959 105.64879932 102.01493568 112 105 C112 105.66 112 106.32 112 107 C109.8160162 108.39175438 107.63173732 109.67367209 105.375 110.9375 C81.09879311 125.06420171 64.83892137 144.91002577 51 169 C48.31685257 165.75228576 45.99038014 162.47791282 43.8125 158.875 C40.01399754 152.82674071 35.61911402 147.43425179 31 142 C30.46375 141.34 29.9275 140.68 29.375 140 C19.95790448 128.53570981 7.09747458 119.386063 -5.83203125 112.27734375 C-6.54746094 111.85582031 -7.26289063 111.43429687 -8 111 C-8 110.67 -8 110.34 -8 110 C-6.741875 109.78085937 -5.48375 109.56171875 -4.1875 109.3359375 C6.12127857 107.45940579 16.39793659 105.44603942 25.9230957 100.90185547 C28 100 28 100 30.83276367 99.28955078 C34.56550874 98.01355984 36.39628669 97.0061525 39 94 C41.33619077 86.55027235 41.00793197 78.35624108 41.1875 70.625 C41.27702233 68.43599295 41.37137081 66.24717759 41.47070312 64.05859375 C41.70308089 58.70668624 41.87483463 53.3554302 42 48 C41.06829483 47.90436264 41.06829483 47.90436264 40.11776733 47.80679321 C39.30466095 47.7205368 38.49155457 47.6342804 37.65380859 47.54541016 C36.84704681 47.46102692 36.04028503 47.37664368 35.20907593 47.28970337 C21.89174322 45.5432373 7.85970557 33.35671065 -0.140625 23.3125 C-1.84003041 20.91333942 -3.45373916 18.50006848 -5 16 C-5.53882813 15.16339844 -6.07765625 14.32679688 -6.6328125 13.46484375 C-8.66175367 9.80695267 -8.86511585 7.18140859 -9 3 C-6.98506186 -0.79282473 -3.95996789 -0.502534 0 0 Z " fill="#FDFDFD" transform="translate(496,361)"/>
<path d="M0 0 C1.39969528 -0.01191879 1.39969528 -0.01191879 2.82766724 -0.02407837 C33.36880022 -0.22384283 33.36880022 -0.22384283 44.5625 5.375 C45.4375 7.4375 45.4375 7.4375 45.5625 9.375 C44.5625 10.375 44.5625 10.375 41.1875 10.5625 C37.97083768 10.53300866 35.10830294 10.09900243 31.9765625 9.390625 C23.48809555 7.81060332 14.91843713 7.93533573 6.3125 7.9375 C5.41088135 7.9364325 4.5092627 7.93536499 3.58032227 7.93426514 C-13.56002035 7.96338965 -29.65866413 9.7896178 -46.4375 13.375 C-48.1380957 13.72788086 -48.1380957 13.72788086 -49.87304688 14.08789062 C-72.76200074 18.91571762 -96.81432731 25.76608921 -115.10546875 41.00390625 C-117.4375 42.375 -117.4375 42.375 -120.23828125 42.08984375 C-120.96402344 41.85394531 -121.68976563 41.61804688 -122.4375 41.375 C-122.81083015 36.89503817 -122.81083015 36.89503817 -121.21484375 34.671875 C-106.19622776 22.04475838 -87.33606645 13.31227642 -68.4375 8.375 C-67.35106201 8.07964355 -67.35106201 8.07964355 -66.24267578 7.77832031 C-44.2336077 1.84641654 -22.70542636 0.10181167 0 0 Z " fill="#596A9E" transform="translate(380.4375,514.625)"/>
<path d="M0 0 C2.49122157 0.3558888 4.09638304 1.06028012 6.23950195 2.40063477 C11.50447574 5.45103216 17.42845326 7.03901655 23.1875 8.9375 C23.86161926 9.16099121 24.53573853 9.38448242 25.23028564 9.61474609 C46.22065571 16.54768882 66.79611257 20.38229849 88.92871094 20.26074219 C91.26262986 20.24994155 93.59579039 20.26075858 95.9296875 20.2734375 C106.72710809 20.28384905 116.86142693 19.30189175 127.3125 16.375 C131.73095996 15.23419186 135.45269216 14.50572741 140 15 C140.99 15.99 140.99 15.99 142 17 C141.44444444 21.55555556 141.44444444 21.55555556 140 23 C138.31544579 23.15986982 136.62680656 23.27740595 134.9375 23.375 C130.56414528 23.7257736 127.02667175 24.45565516 123.046875 26.28125 C117.4951251 28.23071943 111.52806255 28.1583135 105.70703125 28.16796875 C104.92730957 28.17220352 104.14758789 28.17643829 103.34423828 28.18080139 C100.83360338 28.19064268 98.32315069 28.19073056 95.8125 28.1875 C94.95618988 28.18689575 94.09987976 28.1862915 93.21762085 28.18566895 C73.93474179 28.1486017 55.76481472 26.56500331 37 22 C36.0939502 21.78327637 35.18790039 21.56655273 34.25439453 21.34326172 C4.18547875 14.03896716 4.18547875 14.03896716 -2 6 C-1.57894737 1.57894737 -1.57894737 1.57894737 0 0 Z " fill="#5B6D9F" transform="translate(644,790)"/>
<path d="M0 0 C0.33 0.99 0.66 1.98 1 3 C-0.98567708 2.96744792 -2.97135417 2.93489583 -4.95703125 2.90234375 C-7.20305461 2.91736783 -7.20305461 2.91736783 -10 4 C-10.33 4.66 -10.66 5.32 -11 6 C-10.46375 6.20625 -9.9275 6.4125 -9.375 6.625 C-6.55314513 8.25870545 -4.66259269 10.27586098 -2.46484375 12.66015625 C-0.92498332 14.25108699 -0.92498332 14.25108699 2 15 C2 11.7 2 8.4 2 5 C7.239841 12.8597615 7.0392098 24.92282052 6 34 C4.45312944 37.6306714 2.26826869 39.38416835 -1.30078125 41.1171875 C-4.32871029 42.10750872 -6.81831857 42.3003252 -10 42.3125 C-11.010625 42.32925781 -12.02125 42.34601562 -13.0625 42.36328125 C-16.41455609 41.94873176 -18.31761231 41.02658335 -21 39 C-21 38.34 -21 37.68 -21 37 C-20.34 37 -19.68 37 -19 37 C-19.33 35.80375 -19.66 34.6075 -20 33.375 C-20.89265823 29.84208503 -21.18296045 26.65920891 -21 23 C-22.32 23 -23.64 23 -25 23 C-26.76170955 17.01601135 -27.63893698 9.39129519 -24.87109375 3.6640625 C-18.58456419 -4.11613335 -8.27940711 -5.45229249 0 0 Z " fill="#5A6B9D" transform="translate(371,603)"/>
<path d="M0 0 C0.84986984 -0.00570007 1.69973969 -0.01140015 2.57536316 -0.01727295 C4.36785667 -0.02666068 6.16036696 -0.03323192 7.95288086 -0.03710938 C10.62321358 -0.04671402 13.29274108 -0.07775513 15.96289062 -0.109375 C28.18331971 -0.1847196 39.83992612 1.01384137 51.85546875 3.203125 C52.97268311 3.40196289 54.08989746 3.60080078 55.2409668 3.80566406 C65.74167208 5.78087567 76.06290321 8.35660043 86.23046875 11.640625 C87.06763428 11.90456055 87.9047998 12.16849609 88.76733398 12.44042969 C94.61508111 14.42167869 100.22586681 17.03628206 104.85546875 21.203125 C105.41796875 24.578125 105.41796875 24.578125 104.85546875 27.203125 C103.10546875 27.890625 103.10546875 27.890625 100.85546875 28.203125 C100.30503906 27.77257812 99.75460937 27.34203125 99.1875 26.8984375 C96.12845087 24.67460614 92.84057882 23.58804487 89.29296875 22.390625 C88.5462793 22.13490723 87.79958984 21.87918945 87.03027344 21.61572266 C85.44398779 21.07630645 83.85621434 20.54124855 82.26708984 20.01025391 C80.68977871 19.48235447 79.11447368 18.94841283 77.54150391 18.40771484 C68.44058781 15.28357765 59.37332242 12.70922397 49.91796875 10.890625 C49.09071289 10.73126465 48.26345703 10.5719043 47.41113281 10.40771484 C35.63669213 8.28625722 23.84164524 7.99176641 11.91113281 7.96289062 C9.49118879 7.95316807 7.07209058 7.9220248 4.65234375 7.890625 C-6.08291454 7.8188539 -15.86817765 8.7776738 -26.14453125 12.203125 C-28.01766789 12.29650718 -29.89407487 12.33307343 -31.76953125 12.328125 C-32.75179687 12.33070313 -33.7340625 12.33328125 -34.74609375 12.3359375 C-37.14453125 12.203125 -37.14453125 12.203125 -38.14453125 11.203125 C-38.26953125 8.703125 -38.26953125 8.703125 -38.14453125 6.203125 C-35.82307174 3.88166549 -30.68130463 4.22812618 -27.5390625 3.80078125 C-24.18859832 3.30550732 -24.18859832 3.30550732 -21.28125 2.19921875 C-14.42793597 0.02288615 -7.14044605 0.03852816 0 0 Z " fill="#5A6C9F" transform="translate(697.14453125,506.796875)"/>
<path d="M0 0 C1.875 0.8125 1.875 0.8125 2.875 2.8125 C2.98209832 5.14486336 3.06016887 7.4785793 3.125 9.8125 C4.22903795 31.90331861 13.64485331 52.28567504 29.625 67.5 C37.66579134 74.47114478 46.71736803 79.00626802 56.57421875 82.8671875 C58.875 83.8125 58.875 83.8125 59.875 84.8125 C59.91563832 86.47867115 59.917721 88.14638095 59.875 89.8125 C51.816821 92.15244308 43.81992627 86.46568591 36.875 82.6875 C17.46220811 70.9991698 3.8765687 52.10990548 -2.0625 30.3828125 C-4.16677283 21.62175351 -6.4738236 11.85282963 -5.125 2.8125 C-2.7818873 -0.24546064 -2.7818873 -0.24546064 0 0 Z " fill="#5B6C9F" transform="translate(599.125,584.1875)"/>
<path d="M0 0 C3.44197472 1.39459321 5.5226952 3.43019521 8.265625 5.91796875 C7.046875 7.54296875 7.046875 7.54296875 5.828125 9.16796875 C5.27898438 9.90402344 4.72984375 10.64007813 4.1640625 11.3984375 C2.85072387 13.14144865 1.52147495 14.87254325 0.1796875 16.59375 C-5.80208676 24.34906785 -10.83923726 32.44695026 -15.734375 40.91796875 C-18.46471182 37.60937283 -20.85911173 34.25554368 -23.109375 30.60546875 C-26.09249511 25.85051704 -29.27702594 21.33780326 -32.734375 16.91796875 C-30.30113298 14.07918639 -27.96368187 13.07631964 -24.484375 11.79296875 C-18.48841403 9.42671862 -13.24236994 6.34203421 -7.89941406 2.77685547 C-5.14611971 1.01406653 -3.31813366 -0.09954401 0 0 Z " fill="#DFD6B7" transform="translate(562.734375,489.08203125)"/>
<path d="M0 0 C3.53571429 0.53571429 3.53571429 0.53571429 5 2 C5 15.20747483 -4.52206435 27.2507372 -13.23828125 36.33203125 C-25.0000873 47.6318351 -41.6946514 56.16959312 -58 58 C-58.33 55.69 -58.66 53.38 -59 51 C-58.42145264 50.78907715 -57.84290527 50.5781543 -57.24682617 50.36083984 C-37.12983917 42.98334366 -16.94352946 34.91679318 -7.16455078 14.23291016 C-5.78886603 11.1496973 -4.50704418 8.04515245 -3.26171875 4.90625 C-2 2 -2 2 0 0 Z " fill="#5A6C9F" transform="translate(519,744)"/>
<path d="M0 0 C1.051875 0.185625 1.051875 0.185625 2.125 0.375 C3 2.4375 3 2.4375 3.125 5.375 C-3.55166623 17.54662162 -20.66043921 25.12605934 -33.328125 28.83203125 C-41.19311035 30.50876892 -48.92549833 30.52714399 -56.9375 30.5 C-58.08283203 30.50386719 -59.22816406 30.50773438 -60.40820312 30.51171875 C-66.00121075 30.50524911 -71.36835172 30.38202131 -76.875 29.375 C-76.545 27.065 -76.215 24.755 -75.875 22.375 C-74.99352295 22.38547363 -74.1120459 22.39594727 -73.20385742 22.40673828 C-69.88075049 22.44116559 -66.55783768 22.46606467 -63.23461914 22.48486328 C-61.80620298 22.4948174 -60.37780662 22.50838562 -58.94946289 22.52587891 C-39.77319323 22.7545682 -23.92942696 19.06301202 -8.875 6.375 C-7.73141304 5.22654671 -6.60325083 4.0622547 -5.5 2.875 C-2.875 0.375 -2.875 0.375 0 0 Z " fill="#5A6B9F" transform="translate(346.875,797.625)"/>
<path d="M0 0 C7.97646595 0.59917115 13.48301764 3.25848266 18.79296875 9.3046875 C22.35327616 14.20434865 23.82547063 18.13260539 23.93359375 24.1875 C22.93359375 25.1875 22.93359375 25.1875 20.37109375 25.25 C19.56671875 25.229375 18.76234375 25.20875 17.93359375 25.1875 C17.6190625 24.59582031 17.30453125 24.00414062 16.98046875 23.39453125 C12.61431294 14.63534825 12.61431294 14.63534825 4.93359375 9.1875 C2.27712939 8.4569723 -0.38195913 7.813871 -3.06640625 7.1875 C-3.69140625 4.8125 -3.69140625 4.8125 -4.06640625 2.1875 C-2.06640625 0.1875 -2.06640625 0.1875 0 0 Z " fill="#5E6FA1" transform="translate(373.06640625,575.8125)"/>
<path d="M0 0 C2.4140625 0.17578125 2.4140625 0.17578125 5 1 C6.3359375 2.85546875 6.3359375 2.85546875 7.375 5.1875 C10.19342735 10.6930615 13.48241062 14.70224858 19.4140625 16.890625 C20.989681 17.36080957 22.57862309 17.78957625 24.1796875 18.1640625 C26 19 26 19 26.8828125 20.9609375 C26.92148437 21.63382813 26.96015625 22.30671875 27 23 C25 25 25 25 21.375 25.375 C15.35931387 25.16868585 11.13416892 23.02105043 6.7890625 18.90625 C2.44257203 14.1988596 -0.8068969 10.34712045 -1.1875 3.75 C-1 1 -1 1 0 0 Z " fill="#5A6C9F" transform="translate(332,642)"/>
<path d="M0 0 C1.21236328 0.01353516 1.21236328 0.01353516 2.44921875 0.02734375 C3.37154297 0.04474609 3.37154297 0.04474609 4.3125 0.0625 C5.37921952 3.26265856 5.26095472 4.94794294 4.875 8.25 C4.77316406 9.15105469 4.67132813 10.05210937 4.56640625 10.98046875 C4.48261719 11.66753906 4.39882813 12.35460937 4.3125 13.0625 C0.71892281 12.49259348 -0.85999271 11.19867523 -3.3125 8.5625 C-5.72360916 5.94443354 -5.72360916 5.94443354 -8.6875 4.0625 C-8.3575 3.0725 -8.0275 2.0825 -7.6875 1.0625 C-4.80538698 0.10179566 -2.98899956 -0.04331883 0 0 Z " fill="#D6CFB5" transform="translate(368.6875,604.9375)"/>
<path d="M0 0 C4 1 4 1 7 3 C7.29296875 5.1640625 7.29296875 5.1640625 7.1875 7.625 C7.16042969 8.44226563 7.13335937 9.25953125 7.10546875 10.1015625 C7.07066406 10.72804688 7.03585937 11.35453125 7 12 C4.69 12.66 2.38 13.32 0 14 C0 9.38 0 4.76 0 0 Z " fill="#DCD3B6" transform="translate(355,626)"/>
<path d="M0 0 C3 0.125 3 0.125 4 1.125 C4.1875 3.5625 4.1875 3.5625 4 6.125 C2 8.125 2 8.125 -0.5 8.375 C-3 8.125 -3 8.125 -5 6.125 C-4.27477017 0.17811542 -4.27477017 0.17811542 0 0 Z " fill="#5C6DA0" transform="translate(435,521.875)"/>
<path d="M0 0 C1.32 0 2.64 0 4 0 C4.66 4.62 5.32 9.24 6 14 C5.01 14.33 4.02 14.66 3 15 C1.094753 9.89665983 -0.42589023 5.53657294 0 0 Z " fill="#DAD2BA" transform="translate(346,626)"/>
<path d="M0 0 C1.67542976 0.28604898 3.34385343 0.61781233 5 1 C5.625 3.375 5.625 3.375 6 6 C5.34 6.66 4.68 7.32 4 8 C1.06546739 7.63318342 0.13562754 7.13562754 -2 5 C-1.46428571 1.46428571 -1.46428571 1.46428571 0 0 Z " fill="#6172A3" transform="translate(444,794)"/>
<path d="M0 0 C1.67542976 0.28604898 3.34385343 0.61781233 5 1 C5.625 3.375 5.625 3.375 6 6 C5.34 6.66 4.68 7.32 4 8 C1.06546739 7.63318342 0.13562754 7.13562754 -2 5 C-1.46428571 1.46428571 -1.46428571 1.46428571 0 0 Z " fill="#5C6DA0" transform="translate(815,534)"/>
<path d="M0 0 C4.70588235 0.70588235 4.70588235 0.70588235 6 2 C6.04063832 3.66617115 6.042721 5.33388095 6 7 C3.625 7.625 3.625 7.625 1 8 C-1 6 -1 6 -1.1875 3.4375 C-1 1 -1 1 0 0 Z " fill="#5D6EA0" transform="translate(625,783)"/>
<path d="M0 0 C2.125 0.375 2.125 0.375 4 1 C4.625 3.375 4.625 3.375 5 6 C4.34 6.66 3.68 7.32 3 8 C0.875 7.625 0.875 7.625 -1 7 C-1.625 4.625 -1.625 4.625 -2 2 C-1.34 1.34 -0.68 0.68 0 0 Z " fill="#6575A5" transform="translate(257,813)"/>
<path d="M0 0 C1.65 0.33 3.3 0.66 5 1 C5.33 2.65 5.66 4.3 6 6 C4.1875 6.625 4.1875 6.625 2 7 C1.01 6.34 0.02 5.68 -1 5 C-0.67 3.35 -0.34 1.7 0 0 Z " fill="#6374A4" transform="translate(675,674)"/>
</svg>
